<?xml version="1.0" encoding="UTF-8"?>
<svg id="Layer_1" xmlns="http://www.w3.org/2000/svg" version="1.1" viewBox="0 0 325.18 252.59">
  <!-- Generator: Adobe Illustrator 29.8.2, SVG Export Plug-In . SVG Version: 2.1.1 Build 3)  -->
  <defs>
    <style>
      .st0 {
        isolation: isolate;
        opacity: .1;
      }

      .st1 {
        fill: #fdf9ed;
        stroke: #143823;
        stroke-miterlimit: 10;
        stroke-width: .23px;
      }

      .st2 {
        fill: #ece8dc;
      }

      .st3 {
        fill: #fefaee;
      }

      .st4 {
        fill: #1a452b;
      }
    </style>
  </defs>
  <g>
    <ellipse class="st1" cx="184.01" cy="212.75" rx="136.7" ry="39.73"/>
    <ellipse class="st2" cx="184.01" cy="199.07" rx="24.48" ry="63.71" transform="translate(-17.08 380.87) rotate(-89.37)"/>
    <g>
      <g>
        <path class="st1" d="M1.21,92.59c-3.32-22.52.9-38.23,12.56-46.7,17.89-12.99,43.49-.9,46.36.52l-11.21,22.68c-5.9-2.87-16.51-5.5-20.29-2.72-2.38,1.74-4.44,8.68-2.39,22.52,6.16,41.76,58.67,53.25,72.39,54.05l-1.46,25.26c-22.19-1.29-87.45-17.93-95.96-75.6Z"/>
        <path class="st2" d="M34.51,65.2c-2.44-.11-4.55.2-5.86,1.16-2.38,1.74-4.44,8.68-2.39,22.52,6.16,41.75,58.66,53.25,72.39,54.05l-.69,11.98c-15.79-2.32-62.24-12.18-75.55-48.7-15.07-41.35,8.9-41.21,12.1-41.01Z"/>
      </g>
      <g>
        <path class="st1" d="M325.04,25.74c-1.04-7.84-15.88-14.19-44.19-18.88C254.66,2.51,219.94.12,183.08.12s-71.6,2.39-97.77,6.74c-29.37,4.87-44.25,11.53-44.25,19.77,0,.76.07,1.36.27,2.18,1.13,38.94,22.97,184.78,142.09,184.78S325.06,59.71,325.06,26.22l-.02-.49Z"/>
        <ellipse class="st4" cx="183.26" cy="27.11" rx="115.8" ry="19.32"/>
        <ellipse class="st3" cx="183.26" cy="32.72" rx="101.62" ry="12.71"/>
      </g>
      <path class="st0" d="M40.33,53.13c-.08-.02-.16-.02-.26-.02.11,0,.2.02.26.02Z"/>
    </g>
  </g>
  <g>
    <path class="st4" d="M109.14,83.09h24.61v2.15c-5.47,0-6.44,3.61-4.78,9.18l17.19,56.64,10.35-35.35-6.05-21.68c-1.86-6.84-3.91-8.79-8.79-8.79v-2.15h24.51v2.15c-5.47,0-6.25,3.61-4.78,9.18l15.23,55.95,15.53-55.66c1.76-6.44,0-9.47-5.96-9.47v-2.15h18.65v2.15c-4.2,0-7.52,2.93-9.37,9.47l-21.48,76.36h-2.15l-13.77-49.51-14.55,49.51h-2.15l-23.44-77.04c-2.05-6.84-3.91-8.79-8.79-8.79v-2.15Z"/>
    <path class="st4" d="M224.27,96.37c0-5.27.59-9.86-6.74-11.13v-2.15h23.53v2.15c-7.32,1.27-6.74,5.86-6.74,11.13v49.12c0,16.8-7.52,25.58-21.87,25.58-10.45,0-18.55-4.69-19.63-11.33-.49-3.12.68-5.57,3.12-6.64,2.25-.98,4.69-.29,6.44,1.66,4.2,4.69.68,12.99,10.55,12.99,8.01,0,11.33-5.47,11.33-18.36v-53.02Z"/>
  </g>
</svg>