<?xml version="1.0" encoding="UTF-8"?>
<svg id="Capa_1" xmlns="http://www.w3.org/2000/svg" version="1.1" viewBox="0 0 473.56 325.59">
  <!-- Generator: Adobe Illustrator 29.8.2, SVG Export Plug-In . SVG Version: 2.1.1 Build 3)  -->
  <defs>
    <style>
      .st0 {
        fill: #fdf9ed;
      }
    </style>
  </defs>
  <g>
    <path class="st0" d="M159.65,115.21c-1.37,3.66-2.97,7.03-4.8,10.1-1.82,3.07-4.02,5.79-6.61,8.17-2.58,2.37-6,3.78-10.25,4.23-13.89,27.53-28.03,48.98-42.42,64.36-5.53,5.85-10.92,10.57-16.15,14.15-5.24,3.58-9.59,5.55-13.07,5.92-3.09.33-5.51-.35-7.24-2.02-1.74-1.67-2.76-4-3.08-7-.43-4.06.73-8.81,3.47-14.28l-.17-.27c-11.25,17.39-20.49,26.47-27.73,27.23-3.09.33-5.51-.35-7.24-2.02-1.74-1.67-2.77-4-3.08-7-.53-5.02,2.19-12.58,8.15-22.68l22.38-33.55c3.7-5.66,6.08-10.13,7.15-13.42,1.07-3.28,1.46-6.33,1.16-9.13-.39-3.67-2.25-6.5-5.58-8.49-3.34-1.99-7.85-2.69-13.55-2.09-4.44.47-9.08,2.05-13.92,4.76-4.84,2.71-9.27,6.08-13.29,10.11-4.02,4.04-7.12,8.39-9.31,13.06-2.2,4.67-3.07,9.04-2.65,13.09.32,2.99,1.41,5.25,3.27,6.76,1.87,1.51,4.06,2.14,6.57,1.87,2.7-.28,6.27-2.1,10.7-5.45,4.43-3.35,8.86-8.33,13.29-14.95,4.43-6.62,6.73-12.37,6.89-17.27.77-.08,1.23.55,1.37,1.91-.29,5.59-1.88,11.33-4.78,17.2-2.9,5.87-6.84,10.63-11.82,14.28-4.98,3.65-10.13,5.75-15.44,6.31-1.93.2-3.84-.11-5.74-.93-1.9-.83-3.32-2.11-4.29-3.87-.97-1.75-1.55-3.59-1.75-5.53-.47-4.44.43-9.12,2.69-14.05,2.26-4.93,5.46-9.53,9.6-13.83,4.14-4.29,8.79-7.86,13.96-10.7,5.17-2.84,10.16-4.51,14.99-5.02,7.14-.75,12.95.37,17.41,3.36,4.46,3,6.99,7.29,7.58,12.89.41,3.86-.02,7.67-1.29,11.41-1.27,3.75-2.79,7.15-4.56,10.22-1.78,3.07-3.93,6.49-6.46,10.27-2.53,3.78-4.09,6.14-4.67,7.08l-18.75,27.75c-3.26,5.13-4.76,9.04-4.47,11.75.1.97.59,1.87,1.46,2.7.87.84,2.27,1.15,4.2.95,1.16-.12,2.6-.61,4.31-1.48,1.71-.86,3.66-2.34,5.83-4.42,2.17-2.08,4.44-4.62,6.81-7.6,2.37-2.98,7.87-10.79,16.5-23.41,4.86-8.52,7.69-13.43,8.48-14.73.79-1.3,1.77-2.84,2.95-4.63,12.12-18.36,21.28-30.99,27.49-37.9,3.05-3.45,5.78-6.32,8.17-8.62,2.39-2.3,4.46-3.55,6.2-3.73,1.64-.17,2.92.18,3.84,1.06.92.88,1.46,2,1.6,3.35.25,2.41-.91,5.73-3.49,9.96-2.58,4.23-6.96,9.67-13.14,16.32-6.18,6.66-13.92,14.04-23.22,22.14-3.46,6.03-9.11,16.34-16.95,30.93-1.8,3.31-3.27,6.25-4.42,8.81-1.15,2.56-1.62,4.76-1.43,6.59.3,2.8,2.04,4.03,5.22,3.7,1.93-.2,4.64-1.32,8.14-3.35,3.49-2.03,7.03-4.62,10.6-7.78,3.57-3.16,6.72-6.2,9.44-9.12,12.69-13.83,26.37-34.65,41.01-62.46-1.24-.65-1.95-1.84-2.14-3.58-.15-1.45.07-3.23.68-5.34.6-2.11,1.31-4.04,2.1-5.79.96-2.05,2.1-3.88,3.45-5.49,1.34-1.61,2.6-2.47,3.75-2.59,1.45-.15,2.25.55,2.42,2.09.3,2.8-1.44,8.06-5.22,15.78-.8,1.65-1.19,2.62-1.16,2.9l.75.21c2.8-.29,5.73-2.11,8.8-5.47,3.06-3.35,5.63-7.77,7.68-13.26.3-.81,1.23-1.3,2.78-1.46ZM87.26,164.72c5.53-4.98,11.02-10.53,16.47-16.67,5.45-6.14,9.73-11.62,12.84-16.44,3.1-4.82,4.52-8.48,4.26-10.99-.12-1.16-.76-1.68-1.92-1.55-.87.09-2.27.9-4.21,2.42-1.94,1.52-4,3.96-6.18,7.31-1.18,1.79-2.83,4.42-4.95,7.92-2.12,3.49-5.23,8.73-9.33,15.7-4.1,6.97-6.48,10.98-7.15,12.03l.18.27ZM114.11,202.75l2.46-.26c-7.89,10.4-13.81,15.81-17.77,16.22-.48.05-.98-.07-1.5-.35-.52-.29-.8-.67-.85-1.16-.05-.48.09-.96.44-1.44.34-.48.7-.73,1.09-.77.58-.06.91.29.99,1.07.22.27.58.38,1.06.33.96-.1,2.67-1.23,5.13-3.4,2.46-2.16,5.44-5.58,8.95-10.24Z"/>
    <path class="st0" d="M159.3,197.99l2.46-.26c-4.28,5.72-7.34,9.58-9.18,11.58-1.84,2-3.35,3.23-4.52,3.7-1.17.46-2,.72-2.48.77-1.16.12-2.5-.3-4.01-1.26-1.52-.96-2.35-2.17-2.5-3.62-.15-1.45.32-3.25,1.41-5.42,1.09-2.16,3.04-5.2,5.85-9.11,5.45-7.6,8.11-11.93,8-13-.06-.58-.38-.84-.96-.78-1.93.2-5.7,3.12-11.31,8.73-5.61,5.62-10.86,11.57-15.77,17.84l-4.32,7.63-9.41.99c3.89-5.68,8.62-13.16,14.18-22.44,2.81-4.78,5.07-8.39,6.77-10.82l-.16-.13c-1.7,1.45-3.74,3.64-6.12,6.57-2.38,2.94-4.68,5.89-6.9,8.86-2.23,2.97-3.38,4.51-3.47,4.61l-2.46.26c6.23-8.47,10.66-14.16,13.28-17.07,2.62-2.91,5.38-5.4,8.29-7.46,11.21-17.78,20.45-31.08,27.72-39.9,7.27-8.82,13.03-13.45,17.28-13.9,1.54-.16,2.83.21,3.85,1.13,1.02.92,1.61,2.1,1.76,3.55.28,2.61-1.17,6.25-4.34,10.93-3.17,4.68-8.36,10.28-15.58,16.8-7.22,6.52-13.88,11.91-19.97,16.16-4.7,7.33-8.15,12.97-10.37,16.91-2.65,4.48-4.36,7.25-5.13,8.3l.16.13c7.25-8.09,12.32-13.48,15.21-16.17,2.89-2.69,5.15-4.13,6.79-4.3,1.35-.14,2.79.07,4.32.64s2.35,1.49,2.48,2.74c.33,3.09-1.91,8.26-6.72,15.5-.93,1.37-2.24,3.31-3.92,5.83-1.69,2.52-2.9,4.38-3.66,5.58-.75,1.2-1.1,2.09-1.03,2.67.06.58.43.83,1.11.76,1.16-.12,2.56-.93,4.21-2.42,1.65-1.49,4.7-5.21,9.15-11.14ZM180.32,126.51c-3.19.34-9.98,8.62-20.37,24.84-6.6,10.56-10.28,16.36-11.05,17.42l.16.13c3.25-2.49,7.11-5.68,11.58-9.57,2.41-2.11,5.44-5.09,9.09-8.94,3.64-3.85,6.9-7.98,9.75-12.38,2.85-4.4,4.17-7.66,3.95-9.79-.14-1.35-1.18-1.92-3.11-1.72Z"/>
    <path class="st0" d="M192.9,194.44l2.46-.26c-3.34,4.45-6.89,8.24-10.66,11.37-3.77,3.13-7.92,4.94-12.46,5.41-1.93.2-3.52-.27-4.76-1.4-1.24-1.14-1.98-2.77-2.2-4.89-.34-3.19.82-7.02,3.47-11.49,2.57-4.37,4.73-7.48,6.49-9.32l.11-.3c-4.51,3.5-8.94,8.21-13.3,14.14l-2.46.26c5.31-7,10.45-12.42,15.42-16.27,2.69-2.23,5.5-4.04,8.43-5.43,2.93-1.38,5.5-2.19,7.72-2.43,1.83-.19,3.25.05,4.25.72,1,.68,1.56,1.59,1.68,2.75.18,1.74-.69,3.83-2.63,6.28-1.94,2.45-5.05,5.12-9.33,8.01-4.29,2.89-8.14,5.2-11.57,6.93-2,4.21-2.92,7.04-2.76,8.49.13,1.26.78,1.82,1.94,1.7,6.76-.71,13.48-5.47,20.17-14.28ZM193.2,176.55c-.08-.77-.46-1.12-1.14-1.05-1.54.16-3.63,1.68-6.26,4.54-2.63,2.87-5.11,6.18-7.45,9.94l-4.01,6.43.16.13c3.12-1.89,6.16-4.04,9.13-6.45,2.97-2.41,5.35-4.79,7.16-7.12,1.8-2.34,2.6-4.47,2.4-6.4Z"/>
    <path class="st0" d="M229.39,190.6l2.46-.26c-3.18,4.14-5.92,6.34-8.24,6.58-.77.08-1.51-.16-2.2-.72-.69-.56-1.12-1.57-1.27-3.01-.21-2.03.3-4.52,1.55-7.49-1.98,1.58-4.19,3.59-6.61,6.04-2.43,2.45-4.23,4.57-5.41,6.35l-4.58,7.95-9.41.99,12.96-20.11c4.1-6.48,6.07-10.45,5.92-11.9-.06-.58-.38-.84-.96-.78-2.13.22-8.11,6.86-17.96,19.9l-2.46.26c7.11-9.44,11.46-15.14,13.06-17.12,1.6-1.97,3.01-3.42,4.23-4.33,1.22-.91,2.17-1.4,2.85-1.47,1.45-.15,2.89.06,4.32.64,1.43.58,2.21,1.5,2.34,2.76.34,3.18-1.8,8.44-6.39,15.76l-.12.3c4.43-4.27,7.64-7.2,9.62-8.78,1.61-3.29,3.37-6.21,5.3-8.76,1.93-2.55,3.52-3.89,4.77-4.02.77-.08,1.43.12,1.97.6.54.48.84,1.06.91,1.73.17,1.64-.3,3.21-1.41,4.69-1.11,1.49-4.38,3.88-9.79,7.18-.27.22-.69.88-1.26,1.96-.57,1.08-1.01,2.43-1.33,4.02-.32,1.6-.44,2.78-.36,3.55.15,1.45.76,2.12,1.82,2,1.64-.17,3.53-1.69,5.67-4.55Z"/>
    <path class="st0" d="M262.99,187.06l2.46-.26c-3.34,4.45-6.89,8.24-10.66,11.37-3.77,3.13-7.93,4.94-12.46,5.41-1.93.2-3.52-.27-4.76-1.4-1.24-1.14-1.98-2.77-2.2-4.89-.34-3.19.82-7.02,3.47-11.49,2.56-4.37,4.73-7.48,6.48-9.32l.12-.3c-4.52,3.5-8.95,8.22-13.3,14.14l-2.46.26c5.31-7,10.45-12.42,15.42-16.27,2.69-2.23,5.5-4.04,8.43-5.43,2.93-1.38,5.5-2.19,7.72-2.43,1.83-.19,3.25.05,4.25.72,1,.68,1.56,1.59,1.68,2.75.18,1.74-.7,3.83-2.63,6.28-1.94,2.45-5.05,5.12-9.33,8.01-4.28,2.89-8.14,5.2-11.57,6.93-2,4.21-2.92,7.04-2.76,8.49.13,1.26.78,1.82,1.94,1.7,6.76-.71,13.48-5.47,20.17-14.28ZM263.3,169.16c-.08-.77-.46-1.12-1.14-1.05-1.54.16-3.63,1.68-6.26,4.54-2.63,2.87-5.11,6.18-7.45,9.94l-4.01,6.43.16.13c3.12-1.89,6.16-4.04,9.13-6.45,2.97-2.41,5.35-4.79,7.16-7.12,1.8-2.34,2.6-4.47,2.4-6.4Z"/>
    <path class="st0" d="M273.44,155.64c-.09.01-.28-.09-.54-.31-.27-.21-.44-.66-.51-1.34,2.02-1.19,4.04-2.67,6.05-4.44,2.01-1.77,3.54-3.64,4.61-5.61,1.06-1.97,1.55-3.33,1.47-4.11-1.08-.08-2.05-.47-2.9-1.16-.86-.69-1.33-1.52-1.43-2.48-.15-1.45.37-2.77,1.56-3.97,1.19-1.2,2.41-1.86,3.67-2,1.06-.11,2.04.15,2.94.79.89.64,1.43,1.73,1.59,3.27.25,2.41-.23,5-1.45,7.77-1.22,2.76-3.34,5.4-6.34,7.92-3.01,2.51-5.91,4.41-8.7,5.68Z"/>
    <path class="st0" d="M288.19,184.4l2.46-.26c-1.61,2.32-3.9,4.9-6.87,7.75-2.97,2.85-5.75,5-8.33,6.44-2.58,1.44-4.64,2.25-6.19,2.41-1.54.16-2.81-.27-3.8-1.28-.98-1.02-1.54-2.11-1.66-3.27-.12-1.16.2-2.29.96-3.39.76-1.11,1.67-1.71,2.74-1.83.68-.07,1.31.11,1.89.53.58.43.92,1.07,1.01,1.94.09.87-.16,1.68-.77,2.42-.6.75-1.24,1.16-1.92,1.23l-.71.22c.03.29.26.58.68.88.42.3,1.02.41,1.79.32.97-.1,2.24-.97,3.83-2.6,1.58-1.63,3.15-3.9,4.7-6.79,1.63-3.1,2.74-6.71,3.33-10.82.59-4.11.67-8.2.24-12.25-1.81,2.24-4.51,5.8-8.1,10.67-3.59,4.87-6.07,8.21-7.44,10.01l-2.46.26c10.61-14.2,16.71-22.12,18.29-23.75l1.99-1.97,1.27.89c-1.04,1.28-1.5,2.45-1.39,3.51.07.68.62,2.38,1.64,5.1,1.02,2.73,1.63,5.05,1.83,6.98.4,3.76-.28,7.06-2.03,9.88l-.1.45,3.12-3.7Z"/>
    <path class="st0" d="M347.86,178.11l2.46-.26c-3.79,4.79-7.09,8.27-9.89,10.41-2.8,2.15-6.19,4.31-10.15,6.49-4.61,8.1-8.15,14.19-10.6,18.25-2.45,4.07-5.24,8.41-8.36,13.03-5.43,7.8-10.72,13.87-15.87,18.22-5.15,4.35-9.52,6.71-13.09,7.09-1.45.15-2.9.04-4.36-.35-1.45-.38-2.55-1.1-3.3-2.14-.74-1.04-1.18-2.14-1.3-3.3-.28-2.61.46-5.64,2.19-9.09,1.74-3.46,4.63-7.49,8.68-12.12,4.05-4.63,9.64-9.76,16.76-15.38,7.12-5.63,13.72-10.14,19.81-13.51,4.52-7.99,9.23-16.64,14.11-25.94,5.37-10.13,11.58-19.99,18.63-29.57,7.04-9.58,17.38-22.45,31-38.63l-.32-.26c-.91.68-2.52,2.05-4.84,4.1-2.32,2.05-4.28,3.43-5.86,4.13-1.59.71-3.05,1.13-4.4,1.27-3.19.34-8.27-1.13-15.25-4.4-6.98-3.27-11.3-5.08-12.95-5.45-1.65-.36-2.86-.5-3.63-.42-2.41.26-4.66,1.42-6.74,3.49-2.07,2.07-3.7,5.91-4.86,11.5-.29.03-.64-.03-1.05-.18s-.63-.42-.67-.81c.89-3.61,2.09-7.01,3.61-10.19,1.52-3.18,3.43-5.66,5.73-7.41,2.3-1.75,4.47-2.74,6.5-2.96,1.64-.17,3.44,0,5.4.53,1.96.53,6.47,2.37,13.54,5.53,3.99,1.73,7.07,2.94,9.24,3.64,2.17.7,4.18.95,6.01.76,2.41-.25,5.92-2.14,10.53-5.65,1.08-.89,2.29-1.9,3.63-3.02,1.35-1.12,3.45-3.39,6.31-6.81.6-.75,1.49-1.18,2.64-1.3.38-.04.87-.07,1.46-.08.58-.01.91.27.97.85-3.21,2.88-6.13,5.77-8.75,8.68-3.06,3.45-6.36,7.7-9.93,12.76-6.36,9.16-12.98,19.53-19.86,31.09-4.97,8.43-14.56,25.31-28.78,50.62,5.82-3.15,11.02-7.55,15.6-13.21ZM318.87,199.03c-4.86,2.95-9.91,6.49-15.14,10.6-5.23,4.11-9.8,8.23-13.71,12.35-3.91,4.12-6.97,8.22-9.17,12.31-2.2,4.09-3.14,7.73-2.8,10.91.31,2.9,1.76,4.21,4.37,3.93,2.22-.23,4.86-2.05,7.92-5.45,3.06-3.4,6.71-8.59,10.95-15.58,10.65-17.52,16.48-27.07,17.48-28.64l.1-.45Z"/>
    <path class="st0" d="M384.35,174.26l2.46-.26c-2.22,3.07-4,4.67-5.35,4.81-.97.1-2.2-.5-3.7-1.81-2.64,3.7-5.42,6.89-8.36,9.59-2.94,2.7-5.61,4.18-8.03,4.43-1.74.18-3.36-.16-4.87-1.02-1.5-.87-2.4-2.6-2.67-5.21-.35-3.28.81-7.11,3.47-11.5,2.38-4.25,4.72-7.53,7.02-9.82l.12-.3c-4.62,3.42-9.23,8.29-13.83,14.64l-2.46.26c7.63-10.08,15.7-17.23,24.24-21.44,3.05-1.59,5.98-2.53,8.78-2.83,3.38-.36,5.21.77,5.48,3.38.3,2.9-1.27,7.36-4.74,13.39l-3.26,5.18c1.08.96,1.9,1.41,2.48,1.35.67-.07,1.75-1.01,3.22-2.83ZM376.62,175.96c-.33-.35-.66-.88-.97-1.58-.32-.7-.5-1.29-.55-1.77-.1-.96.68-2.54,2.36-4.72,1.68-2.18,4.03-4.6,7.07-7.26.18-1.09.23-2.02.14-2.8-.18-1.74-1.05-2.53-2.59-2.36-1.45.15-3.77,1.74-6.97,4.76-3.2,3.02-5.92,6.31-8.19,9.87-2.1,3.25-3.92,6.59-5.46,10.02-1.54,3.43-2.25,5.73-2.13,6.89.03.29.22.69.56,1.18.35.5,1.05.69,2.11.58,1.54-.16,3.6-1.26,6.17-3.29,2.57-2.03,5.38-5.2,8.44-9.53Z"/>
    <path class="st0" d="M417.95,170.72l2.46-.26c-3.34,4.45-6.89,8.24-10.66,11.37-3.77,3.13-7.92,4.94-12.46,5.42-1.93.2-3.52-.27-4.76-1.4-1.24-1.14-1.98-2.77-2.2-4.89-.34-3.19.82-7.02,3.47-11.5,2.57-4.37,4.73-7.48,6.49-9.32l.11-.3c-4.51,3.5-8.94,8.22-13.3,14.14l-2.46.26c5.31-7,10.45-12.42,15.42-16.27,2.69-2.23,5.5-4.04,8.43-5.43,2.93-1.38,5.5-2.19,7.72-2.42,1.83-.19,3.25.05,4.25.72,1,.68,1.56,1.59,1.68,2.75.18,1.74-.69,3.83-2.63,6.28-1.94,2.45-5.05,5.12-9.33,8.01-4.29,2.89-8.14,5.2-11.57,6.93-2,4.22-2.92,7.04-2.76,8.49.13,1.26.78,1.82,1.94,1.7,6.76-.71,13.48-5.47,20.17-14.28ZM418.26,152.82c-.08-.77-.46-1.12-1.14-1.05-1.54.16-3.63,1.68-6.26,4.54-2.63,2.87-5.11,6.18-7.45,9.94l-4.01,6.43.16.13c3.12-1.89,6.16-4.04,9.13-6.45,2.97-2.41,5.35-4.79,7.16-7.12,1.8-2.34,2.6-4.47,2.4-6.4Z"/>
    <path class="st0" d="M435.23,183.25c-1.16.12-2.14-.17-2.95-.86-.81-.7-1.26-1.57-1.38-2.64-.16-1.54.29-2.98,1.38-4.32,1.08-1.33,2.39-2.08,3.93-2.25,1.16-.12,2.14.16,2.95.86.81.7,1.27,1.58,1.38,2.64.16,1.55-.3,2.98-1.37,4.32-1.08,1.33-2.39,2.08-3.94,2.25ZM458.7,128.06c.48-.05.77.41.88,1.37-.44,3.27-1.77,6.12-4,8.55-2.23,2.43-4.84,3.8-7.84,4.12-1.45.15-2.75-.15-3.9-.91-1.16-.76-1.81-1.86-1.96-3.31-.26-2.41.71-5.3,2.89-8.65,2.18-3.35,4.7-5.94,7.53-7.75,2.83-1.81,5.46-2.84,7.87-3.1,3.86-.41,6.95.2,9.27,1.81,2.32,1.61,3.66,4.15,4.02,7.63.36,3.38-.29,6.5-1.94,9.36-1.65,2.86-4.71,6.06-9.17,9.61-4.46,3.54-7.14,5.66-8.05,6.34-.37.23-1.57,1.12-3.6,2.65-2.04,1.53-3.51,2.86-4.41,3.98s-1.31,2.11-1.22,2.98c.05.48.28.87.71,1.17.42.3.97.41,1.65.34,1.25-.13,2.68-.96,4.28-2.5,1.6-1.53,2.96-3.44,4.09-5.7.19-.02.44.05.75.21.31.16.48.39.51.68-3,5.78-6.34,8.87-10.01,9.25-1.84.19-3.3-.26-4.39-1.37-1.09-1.1-1.73-2.48-1.9-4.12-.17-1.64.42-3.46,1.77-5.46,1.35-2,5.64-5.77,12.86-11.31,5.23-4.07,9-7.73,11.29-11,2.29-3.27,3.32-5.96,3.1-8.09-.15-1.45-.94-2.66-2.36-3.63-1.42-.97-3.53-1.31-6.33-1.02-3.38.36-6.34,1.52-8.86,3.5-2.53,1.98-4.54,4.36-6.06,7.15-1.51,2.8-2.18,5.01-2.01,6.66.11,1.06.47,1.88,1.07,2.45.59.57,1.33.81,2.2.72,2.03-.21,4.11-1.51,6.25-3.88,2.14-2.37,3.81-5.28,5.01-8.73Z"/>
  </g>
  <g>
    <g>
      <g>
        <path class="st0" d="M203.12,69.87h9.78v.85c-2.17,0-2.56,1.44-1.9,3.65l6.83,22.5,4.11-14.04-2.41-8.61c-.74-2.72-1.55-3.49-3.49-3.49v-.85h9.74v.85c-2.17,0-2.48,1.44-1.9,3.65l6.05,22.23,6.17-22.11c.7-2.56,0-3.76-2.37-3.76v-.85h7.41v.85c-1.67,0-2.99,1.16-3.72,3.76l-8.53,30.33h-.85l-5.47-19.67-5.78,19.67h-.85l-9.31-30.61c-.81-2.72-1.55-3.49-3.49-3.49v-.85Z"/>
        <path class="st0" d="M248.85,75.14c0-2.09.23-3.92-2.68-4.42v-.85h9.35v.85c-2.91.5-2.68,2.33-2.68,4.42v19.51c0,6.67-2.99,10.16-8.69,10.16-4.15,0-7.37-1.86-7.8-4.5-.19-1.24.27-2.21,1.24-2.64.89-.39,1.86-.12,2.56.66,1.67,1.86.27,5.16,4.19,5.16,3.18,0,4.5-2.17,4.5-7.29v-21.06Z"/>
      </g>
      <path class="st0" d="M232.44,120.65h0c-18.4,0-38.69-18.69-39.8-59.73,0-.02,0-.05,0-.08v-.38s.38,0,.38,0c.26,0,78.07,0,78.86,0h.38v.38c-.5,18.48-5,33.97-13,44.79-7.16,9.68-16.68,15.01-26.81,15.01ZM193.39,61.19c.85,28.35,13.4,58.71,39.05,58.71,17.99,0,37.84-18.37,39.04-58.69h-75.09c-1.56,0-2.47,0-3-.03Z"/>
    </g>
    <g>
      <path class="st0" d="M169.18,37.47c-.06-.11,0-.23.09-.28l2.64-1.34c.07-.04.15-.03.22.03l7.19,5.71c.51.42.84.6.97.53s.04-.44-.29-1.09l-3.65-7.2c-.06-.11,0-.23.09-.28l1.95-.99c.11-.06.22-.02.28.09l6.4,12.62c.06.11.02.22-.09.28l-2.36,1.2c-.07.04-.17.04-.24-.02l-7.77-6.21c-.51-.42-.84-.6-.97-.53-.13.07-.04.44.29,1.09l3.97,7.83c.06.11,0,.23-.09.28l-1.95.99c-.09.05-.22.02-.28-.09l-6.41-12.62Z"/>
      <path class="st0" d="M197.45,36.62c-.12-.18-.3-.25-.52-.18l-3.72,1.22c-.22.07-.32.24-.31.45l.13,4.08c-.01.09-.07.18-.17.21l-2.14.7c-.14.04-.28-.04-.28-.19l-.28-15c-.01-.11.05-.19.13-.22l3.08-1.01c.08-.03.18,0,.23.1l8.67,12.25c.08.13.03.28-.11.32l-2.14.7c-.1.03-.2,0-.26-.07l-2.31-3.36ZM192.82,35.32c0,.22.12.31.34.24l2.57-.84c.22-.07.26-.22.13-.39l-2.3-3.34c-.31-.47-.55-.67-.69-.63-.14.05-.19.35-.18.92l.13,4.05Z"/>
      <path class="st0" d="M210.11,37.85c-.08.01-.18-.03-.21-.11l-6.56-13.4c-.07-.14.01-.28.16-.3l2.21-.41c.08-.01.18.03.21.11l4.54,9.45c.24.49.43.73.57.7.14-.03.24-.32.29-.86l.9-10.45c0-.08.08-.16.16-.18l2.21-.4c.14-.03.27.08.25.23l-1.39,14.85c0,.08-.08.16-.16.18l-3.19.58Z"/>
      <path class="st0" d="M222.37,21.49c0-.12.09-.21.19-.22l2.18-.15c.12,0,.21.07.22.19l.97,14.12c0,.12-.07.21-.19.22l-2.18.15c-.1,0-.21-.07-.22-.19l-.97-14.12Z"/>
      <path class="st0" d="M243.97,35.68c0,.12-.11.2-.22.2l-1.66-.08c-.1,0-.2-.09-.2-.22l.03-.6c.02-.42-.06-.44-.31-.12-.71.86-1.76,1.39-3.25,1.32-3.49-.17-5.89-2.23-5.66-6.87l.12-2.45c.23-4.61,2.8-6.36,6.31-6.19,3.35.17,5.48,2.07,5.31,5.58,0,.12-.11.2-.22.2l-2.18-.11c-.1,0-.2-.09-.2-.22.04-.81-.05-2.79-2.85-2.93-1.08-.05-3.35.23-3.5,3.35l-.17,3.39c-.15,3.1,2.07,3.6,3.17,3.66,2.35.12,2.73-2.07,2.79-3.34v-.08c0-.06-.01-.11-.07-.11l-2.99-.15c-.12,0-.2-.09-.2-.22l.08-1.62c0-.1.09-.2.22-.2l5.82.29c.1,0,.2.11.2.22l-.36,7.32Z"/>
      <path class="st0" d="M258.63,34.28c-.02-.22-.14-.37-.36-.41l-3.83-.79c-.22-.05-.39.05-.5.24l-1.91,3.6c-.06.07-.15.12-.25.1l-2.2-.45c-.14-.03-.22-.17-.15-.31l7.2-13.17c.04-.1.13-.14.22-.13l3.18.65c.08.02.15.09.15.2l1.45,14.94c.01.15-.12.25-.26.22l-2.2-.45c-.1-.02-.17-.1-.2-.19l-.34-4.06ZM255.25,30.85c-.1.19-.05.33.18.38l2.65.54c.22.05.33-.06.31-.28l-.34-4.04c-.03-.56-.14-.86-.29-.89-.14-.03-.34.21-.61.7l-1.9,3.58Z"/>
      <path class="st0" d="M278.8,29.4c.12.04.17.15.13.26l-.6,1.75c-.04.12-.15.17-.26.13l-2.64-.91c-.3-.1-.49,0-.58.28l-3.8,11c-.04.12-.17.16-.26.13l-2.07-.71c-.1-.03-.17-.15-.13-.26l3.8-11c.09-.28.01-.48-.28-.58l-2.62-.9c-.12-.04-.17-.15-.13-.26l.61-1.75c.04-.12.15-.17.26-.13l8.58,2.96Z"/>
      <path class="st0" d="M288.83,47.59c.09.05.15.17.09.28l-.83,1.66c-.06.11-.19.14-.28.09l-7.88-3.94c-.09-.05-.15-.17-.09-.28l6.34-12.66c.06-.11.19-.14.28-.09l7.76,3.89c.09.05.15.17.09.28l-.83,1.66c-.06.11-.19.14-.28.09l-5.21-2.61c-.28-.14-.48-.08-.62.2l-1.36,2.72c-.14.28-.07.48.21.62l4.95,2.48c.11.06.14.19.09.28l-.73,1.45c-.05.09-.17.15-.28.09l-4.95-2.48c-.28-.14-.47-.08-.62.2l-1.4,2.79c-.14.28-.08.47.2.61l5.33,2.67Z"/>
    </g>
    <path class="st0" d="M232.43,296.51c-80.61,0-146.2-65.58-146.2-146.2,1.79-45.03,18.34-82.74,47.86-109.07,26.28-23.44,61.21-36.35,98.33-36.35h.01c37.13,0,72.06,12.92,98.35,36.36,29.52,26.33,46.06,64.04,47.84,109.05,0,80.63-65.58,146.21-146.2,146.21ZM232.43,5.64c-36.95,0-71.69,12.84-97.83,36.16-29.37,26.19-45.83,63.72-47.61,108.53,0,80.18,65.25,145.43,145.45,145.43s145.45-65.25,145.45-145.44c-1.77-44.78-18.23-82.31-47.59-108.5-26.15-23.32-60.9-36.17-97.85-36.17h-.01Z"/>
    <path class="st0" d="M230.19,301c-7.82,0-15.63-.63-23.36-1.92-40.11-6.68-75.18-30.36-101.44-68.49-44.26-70.06-23.27-163.05,46.78-207.3h0C186.11,1.84,226.36-5.09,265.51,3.74c39.15,8.84,72.52,32.39,93.96,66.32,23.17,40.11,29.49,81.97,18.29,121.05-9.97,34.8-33.23,65.19-65.5,85.58-25.29,15.97-53.75,24.31-82.06,24.31ZM232.14.75c-27.94,0-55.37,7.88-79.56,23.17-69.7,44.03-90.58,136.56-46.55,206.26,26.13,37.95,61.03,61.52,100.93,68.17,35.53,5.92,72.78-2,104.9-22.28,32.11-20.28,55.26-50.52,65.18-85.15,11.14-38.88,4.84-80.54-18.21-120.46-21.32-33.75-54.52-57.19-93.48-65.98-11.04-2.49-22.16-3.72-33.21-3.72Z"/>
    <g>
      <path class="st0" d="M193.6,271.91c.1.04.16.17.12.27-1.21,3.3-3.94,4.25-7.08,3.09-3.28-1.2-4.96-3.88-3.36-8.24l.85-2.3c1.59-4.34,4.56-5.24,7.87-4.03,3.15,1.16,4.62,3.6,3.41,6.91-.04.12-.17.16-.27.12l-2.05-.75c-.1-.04-.17-.15-.12-.27.28-.76.79-2.68-1.85-3.65-1.02-.37-3.26-.78-4.34,2.15l-1.17,3.18c-1.07,2.91.9,4.06,1.94,4.44,2.77,1.02,3.52-.95,3.74-1.55.04-.1.17-.16.27-.12l2.05.75Z"/>
      <path class="st0" d="M201.56,270.62c.9-4.45,4.04-5.87,7.5-5.17,3.49.71,5.8,3.24,4.9,7.68l-.49,2.41c-.91,4.47-4.02,5.9-7.51,5.19-3.47-.7-5.8-3.24-4.89-7.7l.49-2.41ZM210.64,275.46l.67-3.33c.55-2.71-1.17-3.89-2.76-4.21-1.57-.32-3.63.09-4.18,2.81l-.67,3.33c-.55,2.69,1.19,3.89,2.76,4.21,1.59.32,3.63-.11,4.18-2.8Z"/>
      <path class="st0" d="M220.97,268c0-.12.1-.2.22-.19l8.93.53c.12,0,.2.09.19.22l-.11,1.85c0,.12-.1.2-.22.2l-6.09-.36c-.31-.02-.46.12-.48.43l-.18,3.05c-.02.29.12.47.43.48l5.36.32c.1,0,.2.09.2.22l-.1,1.6c0,.1-.12.2-.22.2l-5.36-.32c-.31-.02-.47.12-.48.43l-.33,5.63c0,.12-.12.2-.22.2l-2.18-.13c-.12,0-.2-.1-.2-.22l.84-14.13Z"/>
      <path class="st0" d="M236.24,268.5c0-.12.07-.21.19-.22l8.93-.62c.12,0,.21.07.22.19l.13,1.85c0,.12-.07.21-.19.22l-6.08.42c-.31.02-.45.18-.43.49l.21,3.05c.02.29.18.45.49.42l5.36-.37c.1,0,.21.07.22.19l.11,1.6c0,.1-.09.21-.19.22l-5.36.37c-.31.02-.45.18-.42.49l.39,5.63c0,.12-.09.21-.19.22l-2.18.15c-.12,0-.21-.07-.22-.19l-.99-14.12Z"/>
      <path class="st0" d="M263.14,277c.1-.02.22.04.25.16l.37,1.81c.03.12-.06.22-.16.25l-8.63,1.77c-.1.02-.22-.04-.25-.16l-2.85-13.87c-.03-.12.06-.23.16-.25l8.51-1.75c.1-.02.22.04.25.16l.37,1.82c.02.12-.06.22-.16.25l-5.71,1.17c-.31.06-.42.24-.36.54l.61,2.98c.06.31.23.42.54.36l5.42-1.11c.12-.03.22.06.25.16l.33,1.59c.02.1-.04.22-.16.25l-5.42,1.11c-.31.06-.42.23-.36.54l.63,3.06c.06.31.23.42.54.36l5.83-1.2Z"/>
      <path class="st0" d="M279.91,271.71c.1-.03.22,0,.27.13l.61,1.75c.04.12-.03.23-.13.26l-8.31,2.92c-.1.03-.22-.01-.27-.13l-4.69-13.36c-.04-.12.03-.23.13-.26l8.19-2.88c.1-.03.22,0,.27.13l.61,1.75c.04.12-.03.23-.13.27l-5.5,1.93c-.29.1-.38.29-.28.58l1.01,2.87c.1.29.29.38.58.28l5.22-1.84c.12-.04.23.03.27.13l.54,1.53c.03.1,0,.22-.13.26l-5.23,1.84c-.29.1-.38.29-.28.58l1.04,2.95c.1.29.29.38.58.28l5.62-1.97Z"/>
    </g>
  </g>
  <g>
    <path class="st0" d="M342.34,263.88c-12.29,0-25.68-2.44-40.11-7.31l.24-.71c28.68,9.7,53.25,9.7,73.03.02,29.85-17.5,59.64-1.26,68.06,4.13l-.4.63c-8.33-5.33-37.79-21.4-67.3-4.11-10,4.9-21.21,7.35-33.52,7.35Z"/>
    <path class="st0" d="M342.34,279.84c-12.29,0-25.68-2.44-40.11-7.31l.24-.71c28.68,9.7,53.25,9.7,73.03.02,29.85-17.5,59.64-1.26,68.06,4.13l-.4.63c-8.33-5.33-37.79-21.4-67.3-4.11-10,4.9-21.21,7.35-33.52,7.35Z"/>
    <path class="st0" d="M342.34,295.09c-12.29,0-25.68-2.44-40.11-7.31l.24-.71c28.68,9.7,53.25,9.7,73.03.02,29.85-17.5,59.64-1.26,68.06,4.13l-.4.63c-8.33-5.33-37.79-21.4-67.3-4.11-10,4.9-21.21,7.35-33.52,7.35Z"/>
    <path class="st0" d="M342.34,310.34c-12.29,0-25.68-2.44-40.11-7.31l.24-.71c28.68,9.7,53.25,9.7,73.03.02,29.85-17.5,59.64-1.26,68.06,4.13l-.4.63c-8.33-5.33-37.79-21.4-67.3-4.11-10,4.9-21.21,7.35-33.52,7.35Z"/>
    <path class="st0" d="M343.82,325.59c-12.29,0-25.68-2.44-40.11-7.31l.24-.71c28.68,9.7,53.25,9.7,73.03.02,29.85-17.5,59.64-1.26,68.06,4.13l-.4.63c-8.33-5.33-37.79-21.4-67.3-4.11-10,4.9-21.21,7.35-33.52,7.35Z"/>
  </g>
</svg>