<?xml version="1.0" encoding="UTF-8"?>
<svg id="Layer_1" xmlns="http://www.w3.org/2000/svg" version="1.1" viewBox="0 0 1080 1080">
  <!-- Generator: Adobe Illustrator 29.8.2, SVG Export Plug-In . SVG Version: 2.1.1 Build 3)  -->
  <defs>
    <style>
      .st0 {
        fill: #5d5021;
      }

      .st1 {
        fill: #fffaef;
      }

      .st2 {
        fill: #ebe6da;
      }

      .st3 {
        fill: #fef8ed;
        stroke: #153822;
        stroke-miterlimit: 10;
        stroke-width: .23px;
      }

      .st4 {
        fill: #010101;
        isolation: isolate;
        opacity: .1;
      }
    </style>
  </defs>
  <rect class="st0" width="1080" height="1080"/>
  <g>
    <g>
      <ellipse class="st3" cx="547.96" cy="720.33" rx="282.58" ry="82.12"/>
      <ellipse class="st2" cx="547.96" cy="692.06" rx="50.59" ry="131.7" transform="translate(-150.12 1232.33) rotate(-89.37)"/>
      <g>
        <g>
          <path class="st3" d="M170.1,471.96c-6.86-46.56,1.87-79.03,25.97-96.54,36.98-26.85,89.9-1.87,95.83,1.07l-23.17,46.89c-12.19-5.93-34.12-11.36-41.94-5.63-4.91,3.6-9.17,17.95-4.94,46.56,12.74,86.33,121.28,110.08,149.63,111.72l-3.02,52.21c-45.87-2.66-180.76-37.06-198.36-156.28Z"/>
          <path class="st2" d="M238.91,415.33c-5.05-.22-9.42.41-12.11,2.39-4.91,3.6-9.17,17.95-4.94,46.56,12.74,86.3,121.25,110.08,149.63,111.72l-1.43,24.76c-32.64-4.8-128.66-25.17-156.17-100.66-31.16-85.48,18.39-85.18,25.01-84.77Z"/>
        </g>
        <g>
          <path class="st3" d="M839.49,333.76c-2.14-16.2-32.83-29.32-91.34-39.03-54.14-8.99-125.92-13.93-202.11-13.93s-148,4.94-202.11,13.93c-60.7,10.07-91.47,23.84-91.47,40.87,0,1.57.15,2.8.57,4.52,2.33,80.5,47.48,381.97,293.73,381.97s292.77-318.09,292.77-387.31l-.04-1Z"/>
          <ellipse class="st0" cx="546.41" cy="336.61" rx="239.38" ry="39.94"/>
          <ellipse class="st1" cx="546.41" cy="348.19" rx="210.06" ry="26.27"/>
        </g>
        <path class="st4" d="M250.95,390.39c-.17-.03-.34-.03-.54-.03.24,0,.4.03.54.03Z"/>
      </g>
    </g>
    <g>
      <path class="st0" d="M393.2,452.32h50.87v4.44c-11.3,0-13.32,7.47-9.89,18.97l35.53,117.07,21.4-73.07-12.51-44.81c-3.84-14.13-8.07-18.17-18.17-18.17v-4.44h50.66v4.44c-11.3,0-12.92,7.47-9.89,18.97l31.49,115.66,32.09-115.05c3.63-13.32,0-19.58-12.31-19.58v-4.44h38.55v4.44c-8.68,0-15.54,6.06-19.38,19.58l-44.41,157.85h-4.44l-28.46-102.34-30.08,102.34h-4.44l-48.44-159.26c-4.24-14.13-8.07-18.17-18.17-18.17v-4.44Z"/>
      <path class="st0" d="M631.17,479.77c0-10.9,1.21-20.39-13.93-23.01v-4.44h48.65v4.44c-15.14,2.62-13.93,12.11-13.93,23.01v101.53c0,34.72-15.54,52.88-45.21,52.88-21.6,0-38.35-9.69-40.57-23.41-1.01-6.46,1.41-11.51,6.46-13.73,4.64-2.02,9.69-.61,13.32,3.43,8.68,9.69,1.41,26.85,21.8,26.85,16.55,0,23.41-11.3,23.41-37.95v-109.6Z"/>
    </g>
  </g>
</svg>