<?xml version="1.0" encoding="UTF-8"?>
<svg id="Capa_1" xmlns="http://www.w3.org/2000/svg" version="1.1" viewBox="0 0 1080 1080">
  <!-- Generator: Adobe Illustrator 29.8.2, SVG Export Plug-In . SVG Version: 2.1.1 Build 3)  -->
  <defs>
    <style>
      .st0 {
        fill: none;
        stroke: #fffaef;
        stroke-width: 4px;
      }

      .st0, .st1, .st2, .st3, .st4 {
        stroke-miterlimit: 10;
      }

      .st5 {
        fill: #fef8ed;
      }

      .st6, .st1, .st2, .st4 {
        fill: #1e3d73;
      }

      .st7, .st3 {
        fill: #1c3664;
      }

      .st8 {
        fill: #fffaef;
      }

      .st1, .st2, .st3 {
        stroke: #1c3664;
      }

      .st1, .st3 {
        stroke-width: 3px;
      }

      .st2 {
        stroke-width: 2.93px;
      }

      .st9 {
        fill: #010101;
        isolation: isolate;
        opacity: .1;
      }

      .st4 {
        stroke: #153822;
      }
    </style>
  </defs>
  <rect class="st5" width="1080" height="1080"/>
  <g>
    <g>
      <ellipse class="st4" cx="547.4" cy="817.16" rx="255.31" ry="74.2"/>
      <ellipse class="st7" cx="547.4" cy="791.62" rx="45.71" ry="118.99" transform="translate(-250.23 1330.23) rotate(-89.37)"/>
      <g>
        <g>
          <path class="st6" d="M206,592.76c-6.2-42.06,1.69-71.4,23.46-87.23,33.41-24.26,81.23-1.69,86.58.97l-20.93,42.36c-11.01-5.36-30.83-10.27-37.9-5.08-4.44,3.25-8.28,16.22-4.46,42.06,11.51,78,109.57,99.45,135.19,100.94l-2.73,47.17c-41.44-2.41-163.32-33.48-179.22-141.2Z"/>
          <path class="st7" d="M268.17,541.59c-4.56-.2-8.51.37-10.94,2.16-4.44,3.25-8.28,16.22-4.46,42.06,11.51,77.98,109.55,99.45,135.19,100.94l-1.29,22.37c-29.49-4.34-116.25-22.74-141.1-90.95-28.15-77.23,16.62-76.96,22.59-76.59Z"/>
        </g>
        <g>
          <g>
            <path class="st1" d="M811.59,467.9H281.03c0,62.54,36.35,350.85,265.28,350.85,228.93,0,265.28-288.31,265.28-350.85h0Z"/>
            <path class="st3" d="M363.06,506.48c-54.84-9.1-82.65-21.52-82.65-36.92,0-15.38,27.8-27.82,82.65-36.92,48.88-8.12,113.74-12.59,182.6-12.59,68.84,0,133.69,4.47,182.6,12.59,54.84,9.1,82.65,21.52,82.65,36.92,0,15.4-27.8,27.82-82.68,36.94-48.88,8.12-113.74,12.59-182.6,12.59-68.84,0-133.69-4.49-182.57-12.61Z"/>
          </g>
          <ellipse class="st6" cx="546" cy="470.47" rx="216.28" ry="36.09"/>
          <ellipse class="st0" cx="546" cy="480.93" rx="189.79" ry="23.74"/>
        </g>
        <path class="st9" d="M279.05,519.06c-.15-.03-.3-.03-.49-.03.21,0,.37.03.49.03Z"/>
      </g>
      <g>
        <path class="st8" d="M407.97,577.31h45.95v4.01c-10.21,0-12.03,6.75-8.93,17.14l32.09,105.75,19.33-66-11.3-40.48c-3.46-12.76-7.29-16.41-16.41-16.41v-4.01h45.76v4.01c-10.21,0-11.67,6.75-8.93,17.14l28.44,104.47,28.99-103.93c3.28-12.03,0-17.69-11.12-17.69v-4.01h34.82v4.01c-7.84,0-14.04,5.47-17.5,17.69l-40.11,142.58h-4.01l-25.71-92.44-27.17,92.44h-4.01l-43.76-143.86c-3.83-12.76-7.29-16.41-16.41-16.41v-4.01Z"/>
        <path class="st8" d="M622.93,602.1c0-9.85,1.09-18.41-12.58-20.79v-4.01h43.94v4.01c-13.67,2.37-12.58,10.94-12.58,20.79v91.71c0,31.36-14.04,47.77-40.84,47.77-19.51,0-34.64-8.75-36.65-21.15-.91-5.83,1.28-10.39,5.83-12.4,4.19-1.82,8.75-.55,12.03,3.1,7.84,8.75,1.28,24.25,19.69,24.25,14.95,0,21.15-10.21,21.15-34.28v-99Z"/>
      </g>
    </g>
    <path class="st2" d="M634.67,233.25c0,15.6-4.09,29.9-12.27,42.9-4.24,6.65-8.33,11.92-12.27,15.81-3.94,3.9-15.15,13.37-33.61,28.38-22.11,18.2-33.16,33.95-33.16,47.23,0,4.62,1.82,12.57,5.45,23.83.3.87.45,2.17.45,3.9,0,2.6-1.22,3.9-3.63,3.9-3.34,0-6.59-4.18-9.77-12.56-3.18-8.37-4.77-16.9-4.77-25.56,0-11.55,2.42-22.46,7.27-32.72,4.84-10.25,13.78-23.32,26.8-39.21,19.38-23.68,29.07-44.2,29.07-61.53,0-15.89-4.4-28.38-13.18-37.48-8.79-9.1-20.75-13.65-35.88-13.65-13.93,0-25.6,4.7-34.98,14.08-9.39,9.39-14.08,21.16-14.08,35.31,0,3.18.45,4.77,1.36,4.77.3-.57,1.21-2.02,2.73-4.33,3.02-5.48,8.63-8.23,16.81-8.23,13.63,0,20.44,6.65,20.44,19.93s-7.88,20.8-23.62,20.8c-9.39,0-16.81-2.96-22.26-8.88-5.45-5.92-8.18-13.79-8.18-23.61,0-17.62,6.74-32.06,20.21-43.33,13.47-11.27,30.96-16.9,52.47-16.9,23.62,0,42.62,6.14,57.01,18.41,14.38,12.28,21.58,28.53,21.58,48.74ZM570.16,452.06c0,6.36-2.35,11.85-7.04,16.46-4.7,4.62-10.52,6.93-17.49,6.93s-12.42-2.31-17.26-6.93c-4.85-4.62-7.27-10.11-7.27-16.46s2.42-12.2,7.27-16.68c4.84-4.47,10.75-6.72,17.71-6.72s12.34,2.32,17.03,6.93c4.69,4.63,7.04,10.12,7.04,16.47Z"/>
  </g>
</svg>