<?xml version="1.0" encoding="UTF-8"?>
<svg id="Capa_1" xmlns="http://www.w3.org/2000/svg" version="1.1" viewBox="0 0 326.93 390.4">
  <!-- Generator: Adobe Illustrator 29.8.2, SVG Export Plug-In . SVG Version: 2.1.1 Build 3)  -->
  <defs>
    <style>
      .st0, .st1 {
        stroke-width: 3px;
      }

      .st0, .st1, .st2, .st3, .st4 {
        stroke-miterlimit: 10;
      }

      .st0, .st1, .st3 {
        stroke: #143823;
      }

      .st0, .st2, .st3, .st5 {
        fill: #1a452b;
      }

      .st1, .st6 {
        fill: #143823;
      }

      .st7 {
        isolation: isolate;
        opacity: .1;
      }

      .st2 {
        stroke: #1a452b;
        stroke-width: 2.93px;
      }

      .st8 {
        fill: #fefaee;
      }

      .st9 {
        fill: #143823;
      }

      .st4 {
        fill: none;
        stroke: #fefaee;
        stroke-width: 4px;
      }
    </style>
  </defs>
  <g>
    <ellipse class="st3" cx="183.94" cy="350.16" rx="136.74" ry="39.74"/>
    <ellipse class="st6" cx="183.94" cy="336.48" rx="24.48" ry="63.73" transform="translate(-154.55 516.68) rotate(-89.37)"/>
    <g>
      <g>
        <path class="st5" d="M1.1,229.97c-3.32-22.53.9-38.24,12.57-46.72,17.89-12.99,43.5-.9,46.37.52l-11.21,22.69c-5.9-2.87-16.51-5.5-20.3-2.72-2.38,1.74-4.44,8.69-2.39,22.53,6.16,41.77,58.68,53.26,72.4,54.06l-1.46,25.26c-22.2-1.29-87.47-17.93-95.98-75.62Z"/>
        <path class="st9" d="M34.4,202.57c-2.44-.11-4.56.2-5.86,1.16-2.38,1.74-4.44,8.69-2.39,22.53,6.16,41.76,58.67,53.26,72.4,54.06l-.69,11.98c-15.79-2.32-62.26-12.18-75.57-48.71-15.08-41.36,8.9-41.22,12.1-41.02Z"/>
      </g>
      <g>
        <g>
          <path class="st0" d="M325.43,163.1H41.28c0,33.49,19.47,187.9,142.07,187.9,122.61,0,142.07-154.41,142.07-187.9h0Z"/>
          <path class="st1" d="M85.22,183.76c-29.37-4.87-44.26-11.52-44.26-19.77s14.89-14.9,44.26-19.77c26.18-4.35,60.91-6.74,97.8-6.74,36.87,0,71.6,2.39,97.8,6.74,29.37,4.87,44.26,11.52,44.26,19.77,0,8.25-14.89,14.9-44.28,19.79-26.18,4.35-60.91,6.74-97.8,6.74-36.87,0-71.6-2.4-97.78-6.75Z"/>
        </g>
        <ellipse class="st5" cx="183.19" cy="164.48" rx="115.83" ry="19.33"/>
        <ellipse class="st4" cx="183.19" cy="170.08" rx="101.64" ry="12.71"/>
      </g>
      <path class="st7" d="M40.22,190.5c-.08-.02-.16-.02-.26-.02.11,0,.2.02.26.02Z"/>
    </g>
    <g>
      <path class="st8" d="M109.27,221.7h24.61v2.15c-5.47,0-6.44,3.61-4.78,9.18l17.19,56.64,10.35-35.35-6.05-21.68c-1.86-6.84-3.91-8.79-8.79-8.79v-2.15h24.51v2.15c-5.47,0-6.25,3.61-4.78,9.18l15.23,55.95,15.53-55.66c1.76-6.44,0-9.47-5.96-9.47v-2.15h18.65v2.15c-4.2,0-7.52,2.93-9.37,9.47l-21.48,76.36h-2.15l-13.77-49.51-14.55,49.51h-2.15l-23.44-77.04c-2.05-6.84-3.91-8.79-8.79-8.79v-2.15Z"/>
      <path class="st8" d="M224.39,234.98c0-5.27.59-9.86-6.74-11.13v-2.15h23.53v2.15c-7.32,1.27-6.74,5.86-6.74,11.13v49.12c0,16.8-7.52,25.58-21.87,25.58-10.45,0-18.55-4.69-19.63-11.33-.49-3.12.68-5.57,3.12-6.64,2.25-.98,4.69-.29,6.44,1.66,4.2,4.69.68,12.99,10.55,12.99,8.01,0,11.33-5.47,11.33-18.36v-53.02Z"/>
    </g>
  </g>
  <path class="st2" d="M230.68,37.43c0,8.35-2.19,16.01-6.57,22.97-2.27,3.56-4.46,6.38-6.57,8.47-2.11,2.09-8.11,7.16-18,15.2-11.84,9.75-17.76,18.18-17.76,25.29,0,2.48.97,6.73,2.92,12.76.16.46.24,1.16.24,2.09,0,1.39-.65,2.09-1.95,2.09-1.79,0-3.53-2.24-5.23-6.73-1.7-4.49-2.56-9.05-2.56-13.69,0-6.19,1.3-12.03,3.89-17.52,2.59-5.49,7.38-12.49,14.35-21,10.38-12.68,15.57-23.67,15.57-32.95,0-8.51-2.35-15.2-7.06-20.07-4.71-4.87-11.11-7.31-19.22-7.31-7.46,0-13.71,2.52-18.73,7.54-5.03,5.03-7.54,11.33-7.54,18.91,0,1.71.24,2.55.73,2.55.16-.31.65-1.08,1.46-2.32,1.62-2.94,4.62-4.41,9-4.41,7.3,0,10.95,3.56,10.95,10.68s-4.22,11.14-12.65,11.14c-5.03,0-9-1.58-11.92-4.76-2.92-3.17-4.38-7.39-4.38-12.65,0-9.43,3.61-17.17,10.83-23.21,7.21-6.03,16.58-9.05,28.1-9.05,12.65,0,22.83,3.29,30.53,9.86,7.7,6.58,11.56,15.28,11.56,26.11ZM196.13,154.62c0,3.4-1.26,6.35-3.77,8.82-2.52,2.47-5.64,3.71-9.36,3.71s-6.65-1.24-9.25-3.71c-2.6-2.47-3.89-5.41-3.89-8.82s1.3-6.53,3.89-8.93c2.59-2.4,5.76-3.6,9.49-3.6s6.61,1.24,9.12,3.71c2.51,2.48,3.77,5.42,3.77,8.82Z"/>
</svg>